# xmcd CD database file
#
# Track frame offsets:
#	150
#	26829
#	42016
#	67575
#	87704
#	104002
#	123366
#	143931
#	156992
#	172105
#	184540
#	199291
#
# Disc length: 2863 seconds
#
# Revision: 0
# Processed by: cddbd v1.4PL0 Copyright (c) Steve Scherf et al.
# Submitted via: CDex 1.51
#
DISCID=ab0b2d0c
DTITLE=Voga - Életben tartanak, ha beledöglesz is!
DYEAR=1900
DGENRE=Magyar
TTITLE0=Bunkó Amerika
TTITLE1=Trágár mama blues
TTITLE2=Doktor néni
TTITLE3=Hejj, Pistám
TTITLE4=Beverly Hills
TTITLE5=Titokban
TTITLE6=Sulc Gyzy
TTITLE7=Regtime
TTITLE8=Hülye világ
TTITLE9=Hú, de mocsodék
TTITLE10=Te rohadt élet
TTITLE11=Aki nem
EXTD=
EXTT0=
EXTT1=
EXTT2=
EXTT3=
EXTT4=
EXTT5=
EXTT6=
EXTT7=
EXTT8=
EXTT9=
EXTT10=
EXTT11=
PLAYORDER=
